<svg xmlns="http://www.w3.org/2000/svg" width="66.9" height="100.008" viewBox="0 0 66.9 100.008">
  <g id="man-back-hand-straight" transform="translate(-504.032 -47.902)">
    <path id="Path_41352" data-name="Path 41352" d="M530.975,64.683A9.027,9.027,0,1,0,527.85,52.3,9.027,9.027,0,0,0,530.975,64.683Z" transform="translate(4.309)" fill="#e7e7e7"/>
    <path id="Path_41353" data-name="Path 41353" d="M542.167,63.539l-9.886.522a3.249,3.249,0,0,0-3.073,3.416L530.817,98c0,.057.019.109.026.165L521.956,112.6c-.019.032-.029.066-.047.1a3.514,3.514,0,0,0-.692,2.046l-.237,18.185a3.593,3.593,0,0,0,3.505,3.635l.79.018a3.519,3.519,0,0,0,3.6-3.481l.221-16.972,9.081-14.76a3.4,3.4,0,0,0,.253-.523l1.535-.081,5.934,14.622-1.239,17.156a3.518,3.518,0,0,0,3.29,3.774l.788.05a3.594,3.594,0,0,0,3.8-3.324l1.309-18.14a3.509,3.509,0,0,0-.373-1.827,3.546,3.546,0,0,0-.109-.376l-6.189-15.246a2.854,2.854,0,0,0,.016-.323l-1.3-24.64,10.165,20a2.841,2.841,0,0,0,4.007.281l.477-.415a2.84,2.84,0,0,0,.281-4.007c-3.324-8.442-12.5-25.184-16.819-24.81A12.753,12.753,0,0,0,542.167,63.539Z" transform="translate(3.102 3.372)" fill="#e7e7e7"/>
    <path id="Path_41354" data-name="Path 41354" d="M510.453,66.425l13.888,4.231a2.782,2.782,0,0,1,.551.236,2.815,2.815,0,0,1,.52.291l10.452,7.546-5.307,3.856-8.46-6.013-13.483-4.108a2.841,2.841,0,0,1-1.891-3.545l.185-.6A2.841,2.841,0,0,1,510.453,66.425Z" transform="matrix(0.588, -0.809, 0.809, 0.588, 152.622, 456.536)" fill="#e7e7e7"/>
    <path id="Path_41355" data-name="Path 41355" d="M569.978,120.955a.562.562,0,0,0-.7.371c-.922,2.963-10.42,2.963-14,2.963h-31c-3.575,0-13.074,0-14-2.963a.563.563,0,1,0-1.075.334c.723,2.324,4.484,3.234,9.04,3.569l2.1,2.1a3.205,3.205,0,0,0-.424,1.574,3.253,3.253,0,1,0,6.507,0,3.212,3.212,0,0,0-.407-1.544l1.909-1.909a.4.4,0,0,0,.024-.038h25.038a.542.542,0,0,0,.052.078l1.838,1.838a3.222,3.222,0,0,0-.424,1.574,3.253,3.253,0,1,0,6.507,0,3.212,3.212,0,0,0-.407-1.544l2.172-2.173a.59.59,0,0,0,.058-.089c3.872-.421,6.915-1.37,7.559-3.438A.564.564,0,0,0,569.978,120.955Zm-46.8,10.076A2.128,2.128,0,1,1,525.3,128.9,2.129,2.129,0,0,1,523.176,131.031Zm34.536,0a2.128,2.128,0,1,1,2.128-2.128A2.13,2.13,0,0,1,557.713,131.031Z" transform="translate(0.557 15.754)" fill="#e7e7e7"/>
  </g>
</svg>
